<svg width="430" height="257" viewBox="0 0 430 257" fill="none" xmlns="http://www.w3.org/2000/svg">
<g clip-path="url(#clip0)">
<path d="M329.218 254.094C323.713 249.443 320.369 242.097 321.246 234.946C322.123 227.794 327.554 221.22 334.6 219.701C341.645 218.182 349.677 222.386 351.817 229.266C352.994 216.002 354.351 202.181 361.406 190.885C367.794 180.656 378.857 173.338 390.848 172.028C402.839 170.719 415.463 175.664 422.941 185.125C430.419 194.586 432.25 208.341 427.013 219.203C423.155 227.204 416.046 233.159 408.599 238.004C384.533 253.527 355.668 259.84 327.317 255.78L329.218 254.094Z" fill="#F2F2F2"/>
<path d="M411.084 175.938C401.19 183.994 392.114 193.004 383.986 202.838C371.266 218.175 360.973 235.371 353.465 253.826C352.915 255.173 355.102 255.759 355.646 254.427C367.93 224.434 387.54 197.998 412.683 177.537C413.812 176.618 412.204 175.027 411.084 175.938Z" fill="white"/>
<path d="M138.424 252.83C145.985 246.443 150.578 236.353 149.374 226.53C148.169 216.708 140.709 207.677 131.032 205.592C121.355 203.506 110.324 209.28 107.385 218.73C105.767 200.511 103.903 181.528 94.214 166.013C85.4404 151.964 70.2444 141.912 53.7753 140.113C37.3062 138.315 19.9664 145.107 9.6953 158.102C-0.575851 171.097 -3.0907 189.988 4.10295 204.907C9.40225 215.898 19.1654 224.077 29.3948 230.731C62.0301 251.96 102.514 260.814 141.035 255.147" fill="#F2F2F2"/>
<path d="M25.9813 145.484C39.5703 156.549 52.0367 168.924 63.2004 182.431C74.3658 195.923 84.1957 210.467 92.5521 225.857C97.223 234.49 101.419 243.372 105.121 252.463C105.876 254.312 102.872 255.117 102.126 253.288C95.5682 237.262 87.4551 221.916 77.903 207.472C68.3973 193.08 57.5175 179.644 45.4164 167.352C38.572 160.403 31.3505 153.836 23.7848 147.679C22.234 146.417 24.4433 144.232 25.9812 145.484L25.9813 145.484Z" fill="white"/>
<path d="M308.661 256.437H128.259V71.3973C128.259 32.0286 160.297 -3.8147e-06 199.678 -3.8147e-06H237.241C276.622 -3.8147e-06 308.661 32.0286 308.661 71.3973V256.437Z" fill="#F2F2F2"/>
<path d="M271.098 256.437H128.259V71.3973C128.219 56.3121 132.998 41.6082 141.898 29.4264C142.226 28.9793 142.553 28.5381 142.891 28.1016C147.196 22.4571 152.319 17.486 158.091 13.3525C158.417 13.1153 158.744 12.8823 159.077 12.6492C163.907 9.30784 169.131 6.57633 174.632 4.51685C174.959 4.39309 175.291 4.26908 175.624 4.15013C180.598 2.37537 185.755 1.15966 190.999 0.52546C191.324 0.481065 191.658 0.446325 191.992 0.411585C197.102 -0.134627 202.256 -0.134627 207.366 0.411585C207.698 0.446325 208.032 0.481061 208.361 0.525935C213.604 1.16018 218.759 2.37573 223.733 4.15016C224.065 4.2691 224.398 4.3931 224.725 4.51711C230.158 6.55061 235.321 9.24136 240.1 12.5293C240.432 12.7573 240.764 12.9904 241.092 13.2234C244.327 15.5322 247.366 18.1044 250.178 20.9136C252.432 23.1669 254.533 25.5688 256.467 28.1031C256.803 28.5381 257.13 28.9794 257.458 29.4257C266.359 41.6077 271.137 56.3118 271.098 71.3973V256.437Z" fill="#CCCCCC"/>
<path d="M259.483 173.676C263.85 173.676 267.391 170.136 267.391 165.77C267.391 161.404 263.85 157.865 259.483 157.865C255.115 157.865 251.575 161.404 251.575 165.77C251.575 170.136 255.115 173.676 259.483 173.676Z" fill="#182947"/>
<path d="M293.882 250.895H287.823L284.94 227.53L293.883 227.531L293.882 250.895Z" fill="#FFB8B8"/>
<path d="M283.494 249.164H295.18V256.52H276.137C276.137 255.554 276.327 254.597 276.697 253.705C277.066 252.813 277.608 252.002 278.292 251.319C278.975 250.636 279.786 250.094 280.679 249.724C281.571 249.354 282.528 249.164 283.494 249.164Z" fill="#2F2E41"/>
<path d="M324.032 250.895H317.972L315.089 227.53L324.033 227.531L324.032 250.895Z" fill="#FFB8B8"/>
<path d="M313.644 249.164H325.33V256.52H306.286C306.286 255.554 306.476 254.597 306.846 253.705C307.216 252.813 307.758 252.002 308.441 251.319C309.124 250.636 309.935 250.094 310.828 249.724C311.721 249.354 312.678 249.164 313.644 249.164Z" fill="#2F2E41"/>
<path d="M263.485 167.336C263.049 166.694 262.759 165.964 262.636 165.198C262.513 164.432 262.559 163.648 262.772 162.902C262.984 162.156 263.358 161.465 263.866 160.879C264.375 160.292 265.006 159.825 265.714 159.508L286.313 102.753L296.448 108.282L272.93 162.52C273.382 163.746 273.369 165.095 272.893 166.311C272.417 167.528 271.511 168.528 270.347 169.122C269.183 169.716 267.842 169.862 266.577 169.533C265.312 169.204 264.212 168.422 263.485 167.336Z" fill="#FFB8B8"/>
<path d="M320.936 178.001C320.263 177.615 319.682 177.086 319.236 176.452C318.789 175.817 318.487 175.092 318.35 174.328C318.214 173.564 318.247 172.78 318.447 172.03C318.646 171.28 319.008 170.583 319.507 169.988L313.125 109.951L324.66 110.477L327.312 169.532C328.256 170.436 328.836 171.654 328.942 172.956C329.048 174.258 328.673 175.554 327.887 176.598C327.101 177.642 325.959 178.361 324.678 178.62C323.397 178.878 322.066 178.658 320.936 178.001Z" fill="#FFB8B8"/>
<path d="M302.535 92.2402C309.239 92.2402 314.674 86.8069 314.674 80.1046C314.674 73.4023 309.239 67.969 302.535 67.969C295.831 67.969 290.396 73.4023 290.396 80.1046C290.396 86.8069 295.831 92.2402 302.535 92.2402Z" fill="#FFB8B8"/>
<path d="M320.859 164.347H284.261L284.305 164.062C284.371 163.636 290.828 121.352 286.065 107.519C285.588 106.16 285.63 104.672 286.183 103.341C286.737 102.011 287.764 100.933 289.065 100.313H289.065C295.872 97.1091 308.938 93.1633 319.966 102.739C321.589 104.171 322.856 105.961 323.668 107.968C324.479 109.974 324.812 112.142 324.641 114.299L320.859 164.347Z" fill="#182947"/>
<path d="M291.29 127.601L274.813 124.26L282.537 105.963C282.999 104.191 284.145 102.675 285.724 101.746C287.304 100.818 289.187 100.554 290.96 101.012C292.734 101.469 294.254 102.612 295.186 104.188C296.119 105.765 296.387 107.646 295.934 109.421L291.29 127.601Z" fill="#182947"/>
<path d="M312.393 133.806L311.402 111.106C310.651 106.839 313.095 102.805 316.852 102.146C320.612 101.489 324.282 104.449 325.036 108.747L328.76 129.958L312.393 133.806Z" fill="#182947"/>
<path d="M319.641 161.629C325.53 184.05 326.173 212.556 324.584 243.649L316.676 242.661L302.342 183.369L294.434 243.649L285.538 243.155C282.88 210.53 280.292 182.522 284.549 164.1L319.641 161.629Z" fill="#2F2E41"/>
<path d="M310.534 89.4833C308.269 91.8949 304.063 90.6003 303.768 87.3057C303.745 87.05 303.747 86.7925 303.773 86.5371C303.926 85.0777 304.769 83.7528 304.567 82.2119C304.521 81.8284 304.378 81.463 304.152 81.1502C302.347 78.7344 298.111 82.2307 296.408 80.0437C295.363 78.7028 296.591 76.5914 295.79 75.0926C294.732 73.1144 291.599 74.0903 289.634 73.0069C287.448 71.8016 287.579 68.4488 289.018 66.4094C290.773 63.9223 293.85 62.5952 296.888 62.4039C299.927 62.2127 302.944 63.0338 305.781 64.1389C309.004 65.3946 312.2 67.13 314.183 69.9631C316.595 73.4086 316.828 78.0406 315.621 82.0694C314.887 84.5202 312.383 87.514 310.534 89.4833Z" fill="#2F2E41"/>
<path d="M415.163 256.755H50.2594C50.1036 256.755 49.9544 256.693 49.8444 256.582C49.7344 256.472 49.6726 256.323 49.6726 256.167C49.6726 256.011 49.7344 255.862 49.8444 255.752C49.9544 255.641 50.1036 255.579 50.2594 255.579H415.163C415.319 255.579 415.468 255.641 415.578 255.752C415.688 255.862 415.75 256.011 415.75 256.167C415.75 256.323 415.688 256.472 415.578 256.582C415.468 256.693 415.319 256.755 415.163 256.755Z" fill="#3F3D56"/>
<path d="M231.805 202.828H167.552C166.706 202.832 165.892 202.501 165.29 201.907C164.688 201.313 164.346 200.504 164.339 199.658V56.2854C164.346 55.4395 164.688 54.6307 165.29 54.0365C165.892 53.4422 166.706 53.1111 167.552 53.1156H231.805C232.651 53.1111 233.464 53.4422 234.067 54.0365C234.669 54.6307 235.011 55.4395 235.017 56.2854V199.658C235.011 200.504 234.669 201.313 234.067 201.907C233.464 202.501 232.651 202.832 231.805 202.828Z" fill="white"/>
<path d="M235.017 99.5064H164.339V100.495H235.017V99.5064Z" fill="#CCCCCC"/>
<path d="M235.264 155.888H164.586V156.876H235.264V155.888Z" fill="#CCCCCC"/>
<path d="M187.569 53.1157H186.58V203.322H187.569V53.1157Z" fill="#CCCCCC"/>
<path d="M212.282 53.1157H211.293V203.322H212.282V53.1157Z" fill="#CCCCCC"/>
</g>
<defs>
<clipPath id="clip0">
<rect width="430" height="257" fill="white"/>
</clipPath>
</defs>
</svg>
